<mxfile host="65bd71144e">
    <diagram id="9vbs_oz1D9_fb7JXQiSp" name="Page-1">
        <mxGraphModel dx="1980" dy="1520" grid="1" gridSize="10" guides="1" tooltips="1" connect="1" arrows="1" fold="1" page="0" pageScale="1" pageWidth="850" pageHeight="1100" math="0" shadow="0">
            <root>
                <mxCell id="0"/>
                <mxCell id="1" parent="0"/>
                <mxCell id="2" value="&lt;font style=&quot;font-size: 24px;&quot;&gt;&lt;b&gt;Transaction usecase&lt;/b&gt;&lt;/font&gt;" style="text;html=1;strokeColor=none;fillColor=none;align=center;verticalAlign=middle;whiteSpace=wrap;rounded=0;" parent="1" vertex="1">
                    <mxGeometry x="710" y="-220" width="230" height="80" as="geometry"/>
                </mxCell>
                <mxCell id="18" style="edgeStyle=none;html=1;exitX=0.5;exitY=1;exitDx=0;exitDy=0;endArrow=none;endFill=0;" parent="1" source="4" target="24" edge="1">
                    <mxGeometry relative="1" as="geometry">
                        <mxPoint x="760" y="590" as="targetPoint"/>
                    </mxGeometry>
                </mxCell>
                <mxCell id="30" style="edgeStyle=none;html=1;exitX=1;exitY=0.5;exitDx=0;exitDy=0;entryX=0;entryY=0.5;entryDx=0;entryDy=0;fontSize=16;endArrow=none;endFill=0;" parent="1" source="4" target="29" edge="1">
                    <mxGeometry relative="1" as="geometry"/>
                </mxCell>
                <mxCell id="35" style="edgeStyle=none;html=1;exitX=0.5;exitY=0;exitDx=0;exitDy=0;entryX=0;entryY=0.5;entryDx=0;entryDy=0;fontSize=16;endArrow=none;endFill=0;" parent="1" source="4" target="33" edge="1">
                    <mxGeometry relative="1" as="geometry"/>
                </mxCell>
                <mxCell id="4" value=":Server" style="rounded=0;whiteSpace=wrap;html=1;fontSize=16;fillColor=#1ba1e2;fontColor=#ffffff;strokeColor=#006EAF;" parent="1" vertex="1">
                    <mxGeometry x="710" y="330" width="120" height="60" as="geometry"/>
                </mxCell>
                <mxCell id="8" style="edgeStyle=none;html=1;entryX=0;entryY=0.5;entryDx=0;entryDy=0;fontSize=16;endArrow=none;endFill=0;" parent="1" source="5" target="4" edge="1">
                    <mxGeometry relative="1" as="geometry"/>
                </mxCell>
                <mxCell id="5" value="User" style="shape=umlActor;verticalLabelPosition=bottom;verticalAlign=top;html=1;outlineConnect=0;fontSize=16;" parent="1" vertex="1">
                    <mxGeometry x="200" y="330" width="30" height="60" as="geometry"/>
                </mxCell>
                <mxCell id="10" value="&lt;span style=&quot;color: rgb(255, 255, 255);&quot;&gt;1. RoomsResponse:&lt;/span&gt;&lt;span style=&quot;color: rgb(80, 250, 123); background-color: rgb(40, 42, 55); font-family: &amp;quot;JetBrains Mono&amp;quot;, Consolas, &amp;quot;Courier New&amp;quot;, monospace; font-size: 14px;&quot;&gt;getAvailableRooms&lt;/span&gt;&lt;span style=&quot;color: rgb(255, 255, 255); background-color: initial;&quot;&gt;(idHotel:string,&lt;/span&gt;&lt;br&gt;&lt;span style=&quot;color: rgb(255, 255, 255);&quot;&gt;startDate:string, endDate:string)&lt;/span&gt;" style="text;html=1;align=center;verticalAlign=middle;resizable=0;points=[];autosize=1;strokeColor=none;fillColor=none;fontSize=16;" parent="1" vertex="1">
                    <mxGeometry x="265" y="290" width="410" height="50" as="geometry"/>
                </mxCell>
                <mxCell id="12" value="" style="endArrow=classic;html=1;fontSize=16;" parent="1" edge="1">
                    <mxGeometry width="50" height="50" relative="1" as="geometry">
                        <mxPoint x="415" y="340" as="sourcePoint"/>
                        <mxPoint x="525" y="340" as="targetPoint"/>
                    </mxGeometry>
                </mxCell>
                <mxCell id="23" value="&lt;span style=&quot;color: rgb(248, 248, 242); font-family: &amp;quot;JetBrains Mono&amp;quot;, Consolas, &amp;quot;Courier New&amp;quot;, monospace; font-size: 14px; background-color: rgb(40, 42, 55);&quot;&gt;1.1: [ res:Transaction ,error: String ]:=&lt;/span&gt;&lt;div style=&quot;color: rgb(248, 248, 242); background-color: rgb(40, 42, 55); font-family: &amp;quot;JetBrains Mono&amp;quot;, Consolas, &amp;quot;Courier New&amp;quot;, monospace; font-size: 14px; line-height: 21px;&quot;&gt;&lt;span style=&quot;color: #50fa7b;&quot;&gt;getTransactions&lt;/span&gt;( &lt;span style=&quot;color: #ffb86c;font-style: italic;&quot;&gt;hotelId&lt;/span&gt;, &lt;span style=&quot;color: #ffb86c;font-style: italic;&quot;&gt;dateEnd&lt;/span&gt;, &lt;span style=&quot;color: #ffb86c;font-style: italic;&quot;&gt;dateStart&lt;/span&gt; )&amp;nbsp;&lt;/div&gt;" style="text;html=1;align=center;verticalAlign=middle;resizable=0;points=[];autosize=1;strokeColor=none;fillColor=none;fontSize=16;" parent="1" vertex="1">
                    <mxGeometry x="800" y="450" width="420" height="50" as="geometry"/>
                </mxCell>
                <mxCell id="24" value="&lt;u&gt;&lt;b&gt;:TransactionDto&lt;/b&gt;&lt;/u&gt;" style="rounded=0;whiteSpace=wrap;html=1;fontSize=16;fillColor=#1ba1e2;fontColor=#ffffff;strokeColor=#006EAF;" parent="1" vertex="1">
                    <mxGeometry x="705" y="600" width="130" height="60" as="geometry"/>
                </mxCell>
                <mxCell id="26" value="&lt;span style=&quot;color: rgb(248, 248, 242); font-family: &amp;quot;JetBrains Mono&amp;quot;, Consolas, &amp;quot;Courier New&amp;quot;, monospace; font-size: 14px; background-color: rgb(40, 42, 55);&quot;&gt;1.2: [res:HotelDto, error: string] :=&lt;/span&gt;&lt;div style=&quot;color: rgb(248, 248, 242); background-color: rgb(40, 42, 55); font-family: &amp;quot;JetBrains Mono&amp;quot;, Consolas, &amp;quot;Courier New&amp;quot;, monospace; font-size: 14px; line-height: 21px;&quot;&gt;&lt;span style=&quot;color: #50fa7b;&quot;&gt;getTypeRoomsByHotelId&lt;/span&gt;( &lt;span style=&quot;color: #ffb86c;font-style: italic;&quot;&gt;hotelId&lt;/span&gt; )&lt;/div&gt;" style="text;html=1;align=center;verticalAlign=middle;resizable=0;points=[];autosize=1;strokeColor=none;fillColor=none;fontSize=16;" parent="1" vertex="1">
                    <mxGeometry x="890" y="270" width="330" height="50" as="geometry"/>
                </mxCell>
                <mxCell id="28" value="&lt;div style=&quot;color: rgb(248, 248, 242); background-color: rgb(40, 42, 55); font-family: &amp;quot;JetBrains Mono&amp;quot;, Consolas, &amp;quot;Courier New&amp;quot;, monospace; font-weight: normal; font-size: 14px; line-height: 21px;&quot;&gt;&lt;div style=&quot;text-align: center;&quot;&gt;&lt;span style=&quot;color: #f8f8f2;&quot;&gt;1.3: [res, error: string] :=&lt;/span&gt;&lt;/div&gt;&lt;div style=&quot;text-align: center;&quot;&gt;&lt;span style=&quot;color: #50fa7b;&quot;&gt;getRoomsAvailable&lt;/span&gt;&lt;span style=&quot;color: #f8f8f2;&quot;&gt;( &lt;/span&gt;&lt;span style=&quot;color: #ffb86c;font-style: italic;&quot;&gt;roomsType&lt;/span&gt;&lt;span style=&quot;color: #f8f8f2;&quot;&gt;, &lt;/span&gt;&lt;span style=&quot;color: #ffb86c;font-style: italic;&quot;&gt;rooms&lt;/span&gt;&lt;span style=&quot;color: #f8f8f2;&quot;&gt; )&lt;/span&gt;&lt;/div&gt;&lt;/div&gt;" style="text;whiteSpace=wrap;html=1;fontSize=16;" parent="1" vertex="1">
                    <mxGeometry x="510" y="190" width="350" height="40" as="geometry"/>
                </mxCell>
                <mxCell id="29" value="&lt;u&gt;&lt;b&gt;:HotelDto&lt;/b&gt;&lt;/u&gt;" style="rounded=0;whiteSpace=wrap;html=1;fontSize=16;fillColor=#1ba1e2;fontColor=#ffffff;strokeColor=#006EAF;" parent="1" vertex="1">
                    <mxGeometry x="1240" y="330" width="120" height="60" as="geometry"/>
                </mxCell>
                <mxCell id="31" value="" style="endArrow=classic;html=1;fontSize=16;" parent="1" edge="1">
                    <mxGeometry width="50" height="50" relative="1" as="geometry">
                        <mxPoint x="990" y="325" as="sourcePoint"/>
                        <mxPoint x="1110" y="325" as="targetPoint"/>
                    </mxGeometry>
                </mxCell>
                <mxCell id="32" value="" style="endArrow=classic;html=1;fontSize=16;" parent="1" edge="1">
                    <mxGeometry width="50" height="50" relative="1" as="geometry">
                        <mxPoint x="800" y="440" as="sourcePoint"/>
                        <mxPoint x="800" y="510" as="targetPoint"/>
                    </mxGeometry>
                </mxCell>
                <mxCell id="33" value="&lt;u&gt;&lt;b&gt;:RoomDto&lt;/b&gt;&lt;/u&gt;" style="rounded=0;whiteSpace=wrap;html=1;fontSize=16;fillColor=#1ba1e2;fontColor=#ffffff;strokeColor=#006EAF;" parent="1" vertex="1">
                    <mxGeometry x="1010" y="120" width="120" height="60" as="geometry"/>
                </mxCell>
                <mxCell id="36" value="" style="endArrow=classic;html=1;fontSize=16;" parent="1" edge="1">
                    <mxGeometry width="50" height="50" relative="1" as="geometry">
                        <mxPoint x="811" y="250" as="sourcePoint"/>
                        <mxPoint x="880" y="200" as="targetPoint"/>
                    </mxGeometry>
                </mxCell>
                <mxCell id="40" style="edgeStyle=none;html=1;exitX=0;exitY=0.5;exitDx=0;exitDy=0;fontSize=16;endArrow=none;endFill=0;" parent="1" source="38" target="39" edge="1">
                    <mxGeometry relative="1" as="geometry"/>
                </mxCell>
                <mxCell id="38" value="&lt;b&gt;:Server&lt;/b&gt;" style="rounded=0;whiteSpace=wrap;html=1;fontSize=16;fillColor=#1ba1e2;fontColor=#ffffff;strokeColor=#006EAF;" parent="1" vertex="1">
                    <mxGeometry x="690" y="740" width="120" height="60" as="geometry"/>
                </mxCell>
                <mxCell id="39" value="User" style="shape=umlActor;verticalLabelPosition=bottom;verticalAlign=top;html=1;outlineConnect=0;fontSize=16;" parent="1" vertex="1">
                    <mxGeometry x="210" y="740" width="30" height="60" as="geometry"/>
                </mxCell>
                <mxCell id="43" value="" style="group" parent="1" vertex="1" connectable="0">
                    <mxGeometry x="340" y="690" width="310" height="60" as="geometry"/>
                </mxCell>
                <mxCell id="37" value="&lt;span style=&quot;color: rgb(248, 248, 242); font-family: &amp;quot;JetBrains Mono&amp;quot;, Consolas, &amp;quot;Courier New&amp;quot;, monospace; font-size: 14px; background-color: rgb(40, 42, 55);&quot;&gt;1:&lt;/span&gt;&lt;div style=&quot;color: rgb(248, 248, 242); background-color: rgb(40, 42, 55); font-family: &amp;quot;JetBrains Mono&amp;quot;, Consolas, &amp;quot;Courier New&amp;quot;, monospace; font-size: 14px; line-height: 21px;&quot;&gt;&lt;span style=&quot;color: #50fa7b;&quot;&gt;makeReservation&lt;/span&gt;( &lt;span style=&quot;color: #ffb86c;font-style: italic;&quot;&gt;req&lt;/span&gt;, &lt;span style=&quot;color: #ffb86c;font-style: italic;&quot;&gt;res&lt;/span&gt;, &lt;span style=&quot;color: #ffb86c;font-style: italic;&quot;&gt;next&lt;/span&gt; )&amp;nbsp;&lt;/div&gt;" style="text;html=1;align=center;verticalAlign=middle;resizable=0;points=[];autosize=1;strokeColor=none;fillColor=none;fontSize=16;" parent="43" vertex="1">
                    <mxGeometry width="310" height="50" as="geometry"/>
                </mxCell>
                <mxCell id="42" value="" style="endArrow=classic;html=1;fontSize=16;" parent="43" edge="1">
                    <mxGeometry width="50" height="50" relative="1" as="geometry">
                        <mxPoint x="95" y="59.99999999999999" as="sourcePoint"/>
                        <mxPoint x="185" y="59.99999999999999" as="targetPoint"/>
                    </mxGeometry>
                </mxCell>
                <mxCell id="44" value="User" style="shape=umlActor;verticalLabelPosition=bottom;verticalAlign=top;html=1;outlineConnect=0;fontSize=16;" vertex="1" parent="1">
                    <mxGeometry x="210" y="980" width="30" height="60" as="geometry"/>
                </mxCell>
            </root>
        </mxGraphModel>
    </diagram>
</mxfile>